<?xml version="1.0" standalone="no"?>
<!DOCTYPE svg PUBLIC "-//W3C//DTD SVG 20010904//EN"
 "http://www.w3.org/TR/2001/REC-SVG-20010904/DTD/svg10.dtd">
<svg version="1.0" xmlns="http://www.w3.org/2000/svg"
 width="300.000000pt" height="168.000000pt" viewBox="0 0 300.000000 168.000000"
 preserveAspectRatio="xMidYMid meet">

<g transform="translate(0.000000,168.000000) scale(0.100000,-0.100000)"
fill="#000000" stroke="none">
<path d="M1420 1320 l0 -120 205 0 205 0 0 120 0 120 -205 0 -205 0 0 -120z"/>
<path d="M2100 1340 l0 -60 100 0 100 0 0 60 0 60 -100 0 -100 0 0 -60z"/>
<path d="M649 1213 c-1 -5 -2 -25 -3 -45 l-1 -37 68 -3 67 -3 0 48 0 47 -65 0
c-36 0 -65 -3 -66 -7z"/>
<path d="M1405 1019 c-33 -5 -117 -16 -187 -25 l-127 -16 5 -27 c2 -14 6 -44
8 -66 3 -37 5 -40 32 -37 16 2 112 14 213 28 101 13 184 24 185 24 3 0 -5 84
-10 108 -5 25 -16 26 -119 11z"/>
<path d="M955 990 c-23 -13 -30 -24 -32 -50 -1 -19 5 -40 15 -49 14 -15 15
-14 10 6 -4 14 1 29 13 41 10 11 15 23 12 26 -8 8 11 8 31 0 9 -3 13 -10 10
-15 -3 -5 -1 -17 5 -26 8 -16 10 -15 16 9 8 31 -7 64 -32 70 -10 3 -31 -3 -48
-12z"/>
<path d="M1972 998 c-15 -15 -16 -32 -1 -23 6 4 27 7 47 7 34 0 35 1 17 14
-23 17 -47 18 -63 2z"/>
<path d="M2042 950 c0 -14 2 -19 5 -12 2 6 2 18 0 25 -3 6 -5 1 -5 -13z"/>
<path d="M2130 911 c0 -6 4 -13 10 -16 6 -3 7 1 4 9 -7 18 -14 21 -14 7z"/>
<path d="M2166 907 c3 -10 9 -15 12 -12 3 3 0 11 -7 18 -10 9 -11 8 -5 -6z"/>
<path d="M2193 905 c0 -8 4 -15 9 -15 4 0 8 4 8 9 0 6 -4 12 -8 15 -5 3 -9 -1
-9 -9z"/>
<path d="M1803 898 c-6 -7 -22 -32 -36 -55 l-26 -41 32 -21 c23 -15 33 -17 39
-8 10 17 44 -5 40 -26 -2 -14 46 -57 64 -57 4 0 16 -8 26 -17 15 -13 19 -14
16 -3 -2 10 15 18 60 28 85 19 84 38 -7 97 -38 25 -72 45 -76 45 -3 0 -31 16
-61 35 -62 40 -58 39 -71 23z"/>
<path d="M977 869 c7 -7 15 -10 18 -7 3 3 -2 9 -12 12 -14 6 -15 5 -6 -5z"/>
<path d="M700 750 c0 -27 3 -30 33 -30 31 0 34 3 34 30 0 27 -3 30 -34 30 -30
0 -33 -3 -33 -30z"/>
<path d="M2120 696 c0 -28 -16 -36 -72 -36 -21 0 -46 -7 -54 -15 -8 -8 -20
-12 -28 -9 -28 11 -36 -45 -36 -261 0 -193 -2 -215 -17 -224 -15 -8 -11 -10
19 -11 45 0 42 -9 63 189 9 80 18 147 21 150 3 3 2 -72 -2 -167 l-7 -172 44 0
c34 1 40 3 27 11 -12 6 -16 18 -13 37 3 15 14 115 26 222 20 176 24 199 50
239 25 41 26 46 11 58 -25 18 -32 16 -32 -11z"/>
<path d="M1642 695 c-32 -17 -53 -39 -30 -30 20 8 84 -40 68 -50 -16 -10 -12
-61 6 -76 9 -7 20 -24 25 -37 5 -13 13 -20 19 -17 15 9 12 46 -5 65 -8 8 -22
48 -32 88 -10 39 -20 72 -23 71 -3 -1 -16 -7 -28 -14z"/>
<path d="M990 582 c-67 -4 -80 -14 -54 -43 10 -13 13 -19 5 -14 -11 6 -13 3
-9 -13 4 -12 3 -22 0 -22 -6 0 -7 -117 -3 -276 1 -25 6 -33 25 -36 33 -7 51
17 87 114 27 74 29 90 27 186 -2 61 -7 106 -13 107 -5 0 -35 -1 -65 -3z"/>
<path d="M1600 570 c0 -19 3 -21 12 -12 9 9 9 15 0 24 -9 9 -12 7 -12 -12z"/>
<path d="M1529 397 c-7 -16 -8 -55 -2 -118 7 -86 10 -94 28 -91 11 2 23 9 26
14 5 8 29 5 74 -6 37 -9 70 -14 73 -12 3 3 12 0 21 -6 13 -10 14 -10 4 2 -7 8
-13 22 -13 31 0 12 -16 23 -52 35 -52 18 -52 18 -23 25 17 4 47 7 68 8 29 1
40 6 48 24 14 31 -4 77 -31 77 -11 0 -53 9 -92 20 -95 26 -116 26 -129 -3z
m81 -67 c12 -8 11 -10 -7 -10 -13 0 -23 5 -23 10 0 13 11 13 30 0z"/>
</g>
</svg>
