<?xml version="1.0" standalone="no"?>
<!DOCTYPE svg PUBLIC "-//W3C//DTD SVG 20010904//EN"
 "http://www.w3.org/TR/2001/REC-SVG-20010904/DTD/svg10.dtd">
<svg version="1.0" xmlns="http://www.w3.org/2000/svg"
 width="360.000000pt" height="240.000000pt" viewBox="0 0 360.000000 240.000000"
 preserveAspectRatio="xMidYMid meet">

<g transform="translate(0.000000,240.000000) scale(0.100000,-0.100000)"
fill="#000000" stroke="none">
<path d="M0 1830 l0 -570 21 0 c11 0 44 -7 72 -15 29 -8 59 -13 67 -12 50 9
190 63 190 73 0 16 56 38 72 28 7 -5 21 -7 30 -6 22 4 23 -11 4 -31 -12 -12
-13 -21 -3 -53 6 -22 15 -42 20 -45 5 -4 32 2 60 12 28 10 53 16 56 14 7 -7 1
-10 -54 -27 -47 -15 -50 -18 -48 -48 1 -33 -3 -34 -49 -15 -21 8 -24 -15 -7
-47 10 -18 9 -20 -6 -15 -9 4 -19 7 -21 7 -2 0 -1 12 2 27 6 21 4 25 -8 20 -9
-3 -21 0 -27 6 -9 9 -13 6 -18 -11 -4 -16 -9 -20 -17 -13 -7 6 -32 8 -56 6
-25 -3 -40 -1 -34 3 7 4 13 16 15 26 2 11 10 21 17 24 7 2 10 -2 6 -11 -3 -8
-1 -18 4 -21 6 -3 13 1 16 10 4 10 13 13 26 9 27 -8 60 11 60 36 0 11 5 17 10
14 6 -3 10 1 10 9 0 8 -4 18 -10 21 -6 3 -10 0 -10 -7 0 -7 -9 -2 -19 11 -19
25 -8 26 -146 -7 -22 -6 -32 -16 -40 -40 -5 -17 -15 -32 -23 -32 -9 0 -11 7
-7 20 4 11 2 20 -4 20 -6 0 -11 -7 -11 -15 0 -10 -9 -13 -32 -10 -18 3 -50 2
-71 -1 l-38 -6 2 -133 c1 -106 4 -133 14 -129 7 3 16 1 20 -5 3 -6 33 -11 65
-11 33 0 71 -5 85 -12 19 -9 28 -9 37 0 14 14 28 16 28 5 0 -5 -27 -21 -60
-37 -33 -16 -60 -33 -60 -36 0 -6 35 -14 105 -25 11 -1 27 -6 37 -9 25 -11
171 -3 175 10 2 6 -8 17 -22 24 l-26 14 25 13 c25 13 72 13 94 -1 24 -15 12
-42 -23 -55 -19 -7 -35 -17 -35 -22 0 -12 36 -12 60 1 13 7 21 7 25 -1 5 -7
14 -5 30 5 12 8 32 12 44 9 12 -3 33 0 47 7 13 8 27 11 30 7 3 -3 -10 -13 -30
-21 -41 -17 -40 -13 -25 -72 13 -49 8 -47 79 -29 23 5 23 5 6 -7 -10 -7 -34
-25 -53 -40 -20 -16 -42 -28 -49 -28 -10 0 -12 -9 -8 -32 6 -34 35 -98 44 -98
3 1 41 18 85 40 44 21 82 37 83 35 2 -2 -7 -9 -20 -15 -57 -30 -147 -94 -142
-102 3 -5 14 -2 23 6 10 9 21 16 25 16 5 0 35 16 68 36 32 20 61 34 64 31 7
-7 -40 -39 -113 -77 -35 -17 -63 -36 -63 -41 0 -12 -43 -12 -56 1 -5 5 -15 6
-24 0 -20 -13 -11 -18 40 -23 42 -4 46 -7 69 -50 23 -45 43 -58 56 -37 8 14
77 42 84 35 3 -4 1 -9 -4 -13 -6 -4 -16 -19 -24 -34 -7 -14 -22 -28 -32 -31
-22 -6 -22 -44 1 -44 8 0 28 9 44 20 l28 20 -11 -21 c-7 -12 -19 -22 -27 -22
-9 0 -14 -7 -12 -17 2 -13 17 -20 53 -25 28 -4 58 -5 68 -2 21 7 23 -18 2 -36
-8 -7 -15 -22 -15 -34 0 -29 -10 -42 -45 -61 -29 -15 -26 -16 75 -13 l105 2
74 50 c40 28 86 60 101 71 185 133 175 114 -18 -36 -56 -44 -102 -82 -102 -85
0 -2 563 -4 1250 -4 l1250 0 0 1200 0 1200 -1800 0 -1800 0 0 -570z m1606 276
c1 -19 -3 -23 -22 -22 -13 0 -24 6 -24 11 0 6 -3 5 -8 -1 -10 -15 -106 -42
-142 -40 -16 1 -27 -2 -24 -6 9 -14 -13 -8 -26 7 -11 13 -7 15 21 17 19 1 44
1 57 0 12 0 22 3 22 7 0 5 29 14 65 21 36 7 68 16 71 21 8 13 9 11 10 -15z
m-256 -56 c16 -10 19 -8 -52 -28 -25 -6 -40 -7 -44 0 -8 12 -5 14 36 26 46 13
43 13 60 2z m218 -12 c0 -18 -6 -23 -24 -23 -13 0 -24 3 -24 6 0 5 35 34 46
38 1 1 2 -9 2 -21z m222 -18 c0 -13 -5 -18 -15 -14 -8 3 -29 1 -47 -5 -18 -6
-49 -13 -68 -16 -19 -3 -37 -11 -41 -17 -4 -6 -12 -7 -19 -3 -6 4 -22 2 -33
-4 -12 -5 -58 -19 -102 -30 -60 -15 -81 -17 -87 -8 -8 13 36 29 79 29 13 0 21
3 19 7 -4 7 11 10 64 14 14 1 27 4 30 7 11 11 70 28 70 20 0 -5 14 -2 31 7 16
8 39 13 50 10 10 -3 19 -1 19 3 0 7 17 15 43 19 4 0 7 -8 7 -19z m-592 -9 c2
-7 -2 -11 -9 -10 -8 1 -22 -1 -31 -5 -20 -9 -48 -1 -48 13 0 5 15 12 33 14 42
5 50 3 55 -12z m307 10 c6 -10 -50 -32 -59 -24 -3 4 -6 11 -6 17 0 13 57 19
65 7z m-77 -26 c-3 -9 -13 -12 -57 -17 -31 -4 -39 19 -9 25 35 7 69 3 66 -8z
m-785 -12 c-7 -2 -10 -10 -7 -17 3 -8 -4 -16 -18 -20 -37 -10 -48 -7 -47 12 0
10 3 12 6 5 2 -7 9 -13 14 -13 4 0 5 7 2 17 -4 10 -2 14 4 10 5 -4 19 0 29 8
10 7 21 11 24 8 3 -3 0 -8 -7 -10z m437 7 c0 -18 -36 -30 -50 -17 -8 8 -11 8
-7 1 6 -11 -35 -24 -89 -29 -12 -1 -29 -5 -38 -8 -12 -5 -16 -1 -16 14 0 12 5
19 12 17 6 -2 43 4 82 13 83 21 106 23 106 9z m258 -17 c2 -7 -4 -13 -13 -13
-10 0 -14 5 -10 13 4 6 0 5 -7 -5 -16 -19 -57 -26 -77 -13 -11 6 -3 12 30 21
53 14 71 13 77 -3z m-780 -30 c3 -12 -10 -15 -80 -17 -13 -1 -26 -5 -30 -10
-3 -5 -14 -2 -23 7 -19 19 -19 19 17 21 14 0 29 4 33 7 11 12 78 5 83 -8z
m312 -15 c0 -5 -9 -8 -20 -8 -22 0 -28 26 -7 33 12 4 27 -10 27 -25z m-54 -15
c-2 -2 -20 -5 -42 -7 -21 -2 -47 -7 -56 -11 -10 -4 -25 -4 -34 -1 -8 3 -12 2
-9 -3 3 -5 1 -12 -4 -15 -5 -4 -13 -2 -16 4 -5 7 -11 8 -19 1 -6 -5 -27 -13
-46 -16 -18 -3 -37 -8 -41 -10 -4 -3 -10 2 -13 11 -4 9 -5 17 -4 18 2 1 12 8
22 16 17 14 18 13 12 -8 -5 -13 -3 -22 3 -22 6 0 11 5 11 10 0 13 33 26 88 34
24 3 47 8 51 10 4 3 23 8 42 11 18 3 36 8 38 11 5 5 21 -28 17 -33z m364 28
c0 -22 -84 -32 -88 -11 -2 11 9 16 43 18 25 1 45 -2 45 -7z m-103 -23 c-3 -8
-6 -5 -6 6 -1 11 2 17 5 13 3 -3 4 -12 1 -19z m1226 8 c13 5 16 2 10 -12 -4
-11 -3 -15 4 -11 6 4 13 1 16 -6 4 -10 -6 -13 -37 -12 -28 0 -45 -5 -54 -18
-13 -17 -32 -15 -32 4 0 6 5 7 10 4 6 -3 10 -1 10 4 0 6 -6 11 -12 11 -7 1 2
7 20 15 17 8 32 20 32 27 0 11 2 11 8 0 5 -7 16 -10 25 -6z m-1950 -16 c3 -11
1 -20 -4 -20 -5 0 -9 5 -9 11 0 6 -7 3 -16 -5 -8 -9 -23 -17 -32 -18 -9 0 -28
-2 -42 -3 -14 -1 -35 -5 -47 -9 -17 -5 -23 -3 -23 7 0 19 18 25 86 33 30 4 57
11 60 15 9 15 21 10 27 -11z m707 0 c0 -10 -23 -19 -68 -26 -20 -3 -46 -10
-59 -15 -31 -12 -30 -12 -36 10 -7 28 3 34 26 14 11 -10 18 -13 14 -7 -3 6 5
16 18 22 19 9 27 8 40 -4 13 -14 15 -14 15 0 0 8 8 16 18 19 20 4 32 -1 32
-13z m-645 0 c-3 -5 -12 -10 -18 -10 -7 0 -6 4 3 10 19 12 23 12 15 0z m909 1
c6 -10 -31 -27 -58 -27 -34 1 -29 24 6 29 18 2 36 5 40 5 4 1 9 -2 12 -7z
m855 -33 c-11 -39 -11 -47 -1 -31 5 8 13 9 22 3 12 -8 11 -10 -5 -11 -32 -2
-49 2 -57 14 -5 8 -8 6 -8 -4 0 -9 -11 -24 -25 -33 -27 -18 -36 -20 -32 -8 1
4 -2 7 -8 7 -5 0 -9 -6 -9 -13 1 -7 -3 -11 -10 -9 -6 2 -12 16 -14 32 -3 21 0
26 11 22 7 -3 20 3 27 14 9 11 17 14 20 8 8 -11 80 19 80 33 0 4 4 8 9 8 6 0
6 -12 0 -32z m-1295 -4 c3 -8 2 -12 -4 -9 -6 3 -10 1 -10 -4 0 -6 -4 -11 -10
-11 -14 0 -12 27 3 33 6 3 13 6 13 6 1 1 5 -6 8 -15z m332 4 c4 -7 3 -8 -4 -4
-7 4 -12 2 -12 -5 0 -6 -8 -9 -20 -6 -11 3 -18 2 -15 -3 3 -4 -12 -11 -33 -16
-20 -4 -41 -9 -47 -10 -5 -2 -17 -5 -25 -7 -8 -2 -22 -6 -30 -10 -46 -17 -57
-20 -83 -21 -16 0 -27 4 -27 12 0 6 0 15 0 20 0 4 10 8 22 9 13 1 34 4 48 7
14 4 39 9 55 11 17 3 53 12 80 19 64 18 82 19 91 4z m-692 -14 c4 -12 -19 -21
-75 -30 -25 -5 -46 16 -35 35 7 11 105 7 110 -5z m304 -23 c-6 -2 -14 2 -18 9
-5 8 -9 7 -14 -5 -3 -9 -14 -15 -23 -13 -10 1 -33 -5 -52 -15 -27 -14 -37 -15
-49 -4 -16 13 -21 12 -38 -11 -6 -8 -16 -12 -22 -8 -27 16 -12 26 63 42 11 3
49 12 85 22 58 16 66 16 71 2 4 -8 2 -17 -3 -19z m-426 4 c6 -29 -7 -34 -15
-6 -4 17 0 31 9 31 1 0 4 -11 6 -25z m1613 5 c3 -5 1 -10 -4 -10 -6 0 -11 5
-11 10 0 6 2 10 4 10 3 0 8 -4 11 -10z m-1642 -15 c4 -8 2 -17 -3 -20 -6 -4
-10 -1 -10 5 0 7 -7 5 -16 -4 -8 -9 -23 -17 -32 -18 -9 0 -28 -2 -42 -3 -14
-1 -35 -5 -47 -9 -17 -6 -23 -3 -23 8 0 9 12 18 28 22 15 3 47 12 72 19 60 17
67 17 73 0z m213 -22 c-1 -23 -18 -35 -28 -21 -5 9 14 34 28 38 1 0 1 -8 0
-17z m324 -19 c0 -8 -9 -14 -20 -14 -22 0 -28 26 -7 33 16 6 27 -1 27 -19z
m503 5 c-4 -15 -8 -17 -14 -8 -8 14 -3 29 11 29 4 0 6 -9 3 -21z m-560 -8 c4
-16 -2 -21 -37 -26 -22 -4 -49 -11 -58 -16 -10 -5 -39 -14 -65 -19 -81 -17
-96 -21 -104 -26 -4 -2 -13 4 -19 13 -10 16 -11 16 -6 1 4 -13 -4 -20 -32 -28
-55 -15 -72 -13 -72 10 0 16 7 20 35 20 19 0 37 0 40 0 3 0 21 9 41 21 29 16
35 17 31 5 -3 -9 -2 -18 3 -21 6 -4 10 0 10 9 0 9 17 18 48 25 75 17 154 40
160 46 10 10 20 5 25 -14z m-325 -6 c-2 -6 -11 -10 -20 -9 -10 0 -18 -3 -18
-8 0 -4 -11 -7 -25 -6 -14 1 -25 5 -25 9 0 10 49 21 60 14 6 -4 10 -1 10 5 0
7 5 10 11 8 6 -2 9 -8 7 -13z m862 5 c0 -10 -28 -28 -45 -28 -5 0 -16 5 -24
11 -12 10 -9 13 15 18 44 10 54 10 54 -1z m922 -5 c13 -18 9 -22 -19 -18 -24
3 -25 2 -8 -6 11 -5 18 -10 15 -11 -27 -8 -42 -6 -50 8 -9 14 -10 13 -5 -5 5
-19 3 -22 -11 -16 -13 5 -15 3 -9 -7 6 -10 4 -12 -8 -7 -10 4 -17 1 -17 -5 0
-7 -7 -3 -15 8 -11 14 -14 15 -9 3 3 -10 1 -20 -5 -24 -6 -3 -11 2 -11 12 0
15 -2 15 -9 3 -6 -8 -7 -18 -4 -23 3 -5 0 -8 -8 -5 -8 3 -16 15 -17 28 -3 18
0 21 12 17 9 -4 24 1 34 11 9 9 22 17 27 18 27 2 76 18 81 25 6 11 27 7 36 -6z
m-1012 -18 c0 -17 -73 -41 -78 -27 -2 6 -9 7 -15 3 -7 -4 -6 1 2 10 10 13 17
14 33 6 13 -7 18 -7 14 -1 -5 9 8 16 37 21 4 0 7 -5 7 -12z m580 -10 c0 -17
-263 -103 -268 -88 -2 6 -15 9 -30 6 -42 -8 -8 5 143 56 77 25 143 44 148 42
4 -2 7 -10 7 -16z m-1490 1 c0 -6 -3 -8 -7 -5 -3 4 -11 0 -17 -9 -6 -8 -18
-16 -26 -17 -8 -2 -21 -6 -28 -11 -7 -4 -19 -2 -27 4 -8 7 -15 8 -15 3 0 -5
-12 -10 -27 -11 -49 -4 -7 21 65 39 86 21 82 21 82 7z m1043 -17 c3 -12 -1
-22 -9 -25 -8 -3 -14 1 -14 9 0 8 -5 15 -11 15 -6 0 -9 -7 -6 -15 7 -16 3 -20
-36 -29 -22 -5 -27 -4 -22 6 4 7 -2 3 -12 -10 -15 -18 -21 -20 -31 -10 -9 9
-12 9 -12 -2 0 -7 -3 -10 -7 -7 -3 4 -11 3 -17 -2 -6 -5 -29 -11 -51 -13 -22
-2 -44 -8 -50 -15 -16 -18 -49 -20 -52 -3 -4 15 14 21 75 24 12 0 22 6 22 11
0 6 8 12 18 13 31 3 57 9 85 21 16 6 34 11 40 11 7 0 26 9 42 20 37 25 41 25
48 1z m-243 -7 c0 -8 -4 -12 -10 -9 -5 3 -10 1 -10 -5 0 -6 -6 -10 -12 -8 -7
1 -23 -3 -35 -10 -13 -7 -23 -10 -23 -6 0 3 -6 1 -14 -5 -11 -9 -15 -8 -20 4
-3 9 -2 13 3 10 5 -3 12 -1 16 5 4 6 11 8 16 5 5 -4 9 -2 9 4 0 6 15 15 33 20
45 13 47 13 47 -5z m-748 -49 c3 -13 1 -22 -3 -19 -9 5 -13 44 -5 44 2 0 6
-11 8 -25z m601 6 c4 -15 0 -18 -19 -16 -13 1 -24 -2 -24 -6 0 -5 -10 -7 -22
-5 -35 5 -29 31 7 31 17 0 33 -4 37 -10 4 -6 8 -2 8 8 0 23 6 22 13 -2z m807
9 c-8 -5 -19 -10 -25 -10 -5 0 -3 5 5 10 8 5 20 10 25 10 6 0 3 -5 -5 -10z
m550 -5 c-9 -10 -9 -15 -1 -15 6 0 11 -7 11 -15 0 -8 -3 -15 -7 -14 -5 1 -19
-2 -33 -7 -31 -10 -35 -8 -35 14 -1 10 14 24 35 34 43 22 46 22 30 3z m-1987
-15 c6 -22 -8 -28 -16 -7 -3 7 -6 5 -6 -6 -1 -11 -12 -20 -31 -23 -16 -4 -30
-9 -30 -13 0 -3 -20 -6 -44 -7 -33 -1 -45 3 -48 15 -6 22 2 51 12 51 5 0 7 -7
4 -15 -4 -8 -2 -15 2 -15 19 1 126 29 132 34 10 11 20 6 25 -14z m537 -23 c0
-5 -4 -5 -10 -2 -5 3 -10 1 -10 -6 0 -6 -8 -9 -20 -6 -10 3 -21 0 -23 -7 -3
-8 -9 -7 -18 3 -9 9 -9 11 -1 7 6 -4 12 -3 12 2 0 6 11 13 25 16 14 4 25 12
25 19 0 13 20 -12 20 -26z m840 18 c-29 -17 -50 -19 -50 -6 0 10 23 18 55 19
17 1 17 -1 -5 -13z m510 -22 c0 -14 -2 -15 -9 -4 -6 9 -10 10 -16 2 -4 -7 -2
-18 5 -26 9 -10 7 -15 -8 -19 -11 -4 -27 -4 -36 0 -13 5 -15 2 -9 -12 6 -18 5
-18 -16 0 -22 20 -22 20 -16 0 6 -18 6 -18 -5 -1 -10 15 -8 21 7 32 12 9 22
10 30 3 10 -8 13 -6 13 6 0 10 4 15 9 12 5 -3 14 1 21 9 17 20 30 19 30 -2z
m-1464 -29 c2 -13 0 -13 -14 -2 -10 8 -13 9 -9 1 5 -7 -2 -14 -15 -18 -68 -19
-64 -19 -48 0 14 17 14 17 -8 6 -12 -7 -20 -17 -16 -23 5 -7 -2 -9 -20 -6 -14
3 -26 1 -26 -3 0 -5 -4 -9 -10 -9 -5 0 -7 7 -4 15 4 8 14 15 24 15 10 0 25 6
32 13 18 17 48 20 48 5 0 -9 3 -9 8 -2 9 14 46 34 51 28 3 -3 6 -11 7 -20z
m250 -11 c-3 -4 -6 -1 -6 5 0 7 -5 12 -11 12 -5 0 -8 -4 -5 -9 6 -10 -17 -22
-51 -26 -15 -2 -23 2 -23 11 0 8 8 14 18 14 9 0 28 6 42 13 21 11 26 11 33 -1
5 -7 6 -16 3 -19z m404 24 c0 -8 -25 -21 -60 -30 -69 -20 -73 -20 -66 -8 3 5
28 14 56 21 28 7 53 16 56 21 8 13 14 11 14 -4z m180 -1 c0 -2 -7 -6 -15 -10
-8 -3 -15 -1 -15 4 0 6 7 10 15 10 8 0 15 -2 15 -4z m-705 -45 c3 -6 -3 -8
-14 -6 -11 2 -22 -3 -25 -12 -4 -8 -13 -13 -21 -9 -8 3 -17 0 -21 -6 -4 -7 -9
-6 -15 3 -11 18 -11 32 -1 25 5 -3 22 -1 38 4 40 11 52 12 59 1z m1489 -10
c11 -17 -4 -36 -41 -52 -27 -12 -40 -13 -49 -5 -7 6 -8 13 -3 14 5 2 9 10 9
17 0 22 73 44 84 26z m-1601 -21 c3 -11 1 -18 -4 -14 -5 3 -9 12 -9 20 0 20 7
17 13 -6z m637 10 c-8 -5 -19 -10 -25 -10 -5 0 -3 5 5 10 8 5 20 10 25 10 6 0
3 -5 -5 -10z m-660 -22 c0 -6 -3 -8 -7 -5 -3 4 -11 0 -17 -8 -6 -8 -22 -16
-36 -17 -14 -2 -31 -7 -37 -11 -8 -5 -13 -3 -13 5 0 9 -3 9 -10 -2 -9 -13 -10
-13 -10 0 -1 12 -3 11 -11 -2 -12 -22 -29 -23 -29 -2 0 8 4 13 9 9 5 -3 12 -1
16 4 3 5 14 8 24 6 11 -2 22 3 25 11 3 8 10 14 16 14 6 0 8 -6 4 -12 -4 -7 2
-4 14 6 12 11 22 15 22 11 0 -5 5 -4 12 3 12 12 28 7 28 -10z m540 -4 c0 -31
-23 -28 -28 4 -2 15 2 22 12 22 11 0 16 -9 16 -26z m525 17 c-6 -5 -21 -11
-35 -15 -21 -5 -20 -3 5 9 35 17 42 18 30 6z m-1372 -27 c-7 -18 -53 -18 -53
-1 0 20 8 25 35 20 15 -3 22 -10 18 -19z m51 17 c3 -5 -3 -11 -14 -14 -13 -3
-20 0 -20 9 0 15 26 19 34 5z m1086 -1 c0 -5 -8 -10 -17 -10 -15 0 -16 2 -3
10 19 12 20 12 20 0z m683 -27 c4 -24 4 -26 -8 -10 -7 9 -15 17 -19 17 -11 0
-6 -28 7 -33 7 -4 6 -6 -5 -6 -9 -1 -18 -7 -21 -13 -3 -10 -8 -9 -22 2 -17 14
-18 13 -12 -2 3 -10 2 -18 -3 -18 -5 0 -14 8 -20 18 -9 14 -10 13 -5 -8 l5
-25 -12 23 c-9 19 -9 25 3 33 8 5 22 7 31 5 11 -3 15 1 11 11 -4 11 -1 14 8
11 8 -3 20 1 27 9 20 20 29 16 35 -14z m-1893 0 c0 -15 -2 -16 -10 -3 -8 13
-10 13 -10 -1 0 -9 -7 -19 -15 -23 -19 -7 -15 15 5 31 21 17 30 16 30 -4z
m1165 7 c-3 -5 -12 -10 -18 -10 -7 0 -6 4 3 10 19 12 23 12 15 0z m270 -10
c-3 -5 -12 -10 -18 -10 -7 0 -6 4 3 10 19 12 23 12 15 0z m-1507 -9 c11 -7 11
-12 2 -28 -16 -25 -93 -27 -98 -2 -2 12 8 20 35 27 50 13 46 13 61 3z m1832
-11 c0 -5 -4 -10 -10 -10 -5 0 -10 5 -10 10 0 6 5 10 10 10 6 0 10 -4 10 -10z
m-1630 -32 c0 -6 -7 -5 -15 2 -8 7 -15 17 -15 22 0 6 7 5 15 -2 8 -7 15 -17
15 -22z m30 10 c0 -6 -6 -5 -15 2 -8 7 -15 14 -15 16 0 2 7 1 15 -2 8 -4 15
-11 15 -16z m886 7 c-11 -8 -27 -15 -35 -14 -9 0 -2 7 14 14 39 18 45 18 21 0z
m-963 -15 c3 -11 1 -20 -4 -20 -5 0 -9 9 -9 20 0 11 2 20 4 20 2 0 6 -9 9 -20z
m1180 -2 c6 -21 2 -36 -7 -27 -10 11 -16 49 -8 49 5 0 12 -10 15 -22z m-278
-8 c-3 -5 -10 -10 -16 -10 -5 0 -9 5 -9 10 0 6 7 10 16 10 8 0 12 -4 9 -10z
m-961 -16 c5 -13 3 -14 -7 -6 -10 8 -16 6 -25 -9 -7 -10 -18 -19 -26 -19 -8 0
-16 -6 -19 -13 -8 -20 -91 -16 -95 4 -4 21 85 46 101 30 6 -6 15 -11 21 -11 5
0 6 3 3 7 -6 6 21 32 34 33 4 0 10 -7 13 -16z m924 4 c-6 -18 -28 -21 -28 -4
0 9 7 16 16 16 9 0 14 -5 12 -12z m122 -108 c-8 -5 -19 -10 -25 -10 -5 0 -3 5
5 10 8 5 20 10 25 10 6 0 3 -5 -5 -10z m94 -24 c-28 -20 -136 -67 -141 -62 -5
4 136 74 152 75 5 1 0 -5 -11 -13z m342 -1 c-11 -8 -24 -15 -30 -15 -5 0 -1 7
10 15 10 8 24 14 29 14 6 0 1 -6 -9 -14z m-496 -69 c0 -8 -7 -16 -15 -20 -15
-5 -21 14 -8 27 11 12 23 8 23 -7z m115 4 c-3 -5 -12 -10 -18 -10 -7 0 -6 4 3
10 19 12 23 12 15 0z m254 -172 c2 -34 -18 -17 -29 25 -7 23 -18 62 -26 86 -8
24 -12 51 -8 60 7 16 62 -133 63 -171z m78 166 c0 -9 -11 -21 -23 -26 -22 -10
-22 -12 -6 -25 16 -12 16 -13 -2 -6 -14 5 -17 3 -11 -7 5 -8 4 -11 -3 -7 -15
10 -9 35 14 52 19 15 19 15 -1 9 l-20 -7 20 16 c25 21 32 21 32 1z m-367 -8
c0 -2 -7 -7 -16 -10 -8 -3 -12 -2 -9 4 6 10 25 14 25 6z m-1329 -72 c-7 -24
-10 -26 -16 -11 -4 10 -2 24 5 32 18 21 21 14 11 -21z m1469 32 c0 -2 -7 -7
-16 -10 -8 -3 -12 -2 -9 4 6 10 25 14 25 6z m-1430 -40 c-5 -15 -14 -25 -20
-21 -10 6 -2 36 14 47 16 11 18 3 6 -26z m1235 4 c-3 -5 -13 -10 -21 -10 -8 0
-12 5 -9 10 3 6 13 10 21 10 8 0 12 -4 9 -10z m115 -4 c0 -2 -7 -7 -16 -10 -8
-3 -12 -2 -9 4 6 10 25 14 25 6z m315 -5 c3 -5 2 -12 -3 -15 -5 -3 -9 1 -9 9
0 17 3 19 12 6z m-300 -11 c-3 -5 0 -10 7 -10 7 -1 -3 -9 -22 -20 -19 -11 -29
-19 -22 -20 7 0 10 -4 7 -10 -10 -16 -23 -11 -21 8 2 9 -1 20 -6 23 -5 3 -2 9
7 12 9 4 13 3 10 -3 -8 -13 5 -13 25 0 13 9 13 10 0 10 -13 0 -13 1 0 10 19
12 23 12 15 0z m-106 -61 c14 -41 14 -46 -4 -52 -10 -4 -17 5 -24 30 -16 58 9
77 28 22z m-1329 7 c0 -2 -7 -6 -15 -10 -8 -3 -15 -1 -15 4 0 6 7 10 15 10 8
0 15 -2 15 -4z m-62 -24 c2 -7 -6 -12 -17 -12 -21 0 -27 11 -14 24 9 9 26 2
31 -12z m1962 -19 c0 -11 -131 -96 -137 -90 -6 6 10 20 72 62 51 35 65 41 65
28z m-1566 -18 c3 -10 -1 -15 -12 -16 -10 0 -12 -3 -4 -6 14 -5 17 -33 2 -33
-5 0 -14 8 -20 18 -10 15 -10 15 -6 -3 5 -16 -1 -23 -32 -33 -61 -21 -65 -20
-66 17 -1 32 1 34 54 52 69 22 76 23 84 4z m36 -66 c0 -5 -7 -9 -15 -9 -15 0
-20 12 -9 23 8 8 24 -1 24 -14z m-204 2 c-3 -5 -20 -11 -37 -13 -29 -5 -30 -4
-14 9 21 14 59 18 51 4z m14 -30 c0 -9 -41 -23 -49 -16 -3 4 28 20 47 24 1 1
2 -3 2 -8z m1404 0 c5 -7 -40 -36 -122 -80 -15 -8 -30 -18 -33 -24 -4 -5 -9
-4 -14 3 -8 13 11 29 82 65 29 14 55 31 58 36 8 11 22 12 29 0z m160 -16 c-10
-8 -25 -12 -32 -10 -7 3 -11 1 -8 -4 3 -5 -1 -14 -9 -21 -10 -9 -15 -9 -15 -1
0 6 -5 11 -11 11 -5 0 -8 -4 -4 -9 6 -11 -63 -67 -72 -58 -3 4 -18 -2 -32 -12
-14 -10 -35 -21 -46 -25 -37 -13 21 38 88 78 84 51 88 52 122 63 37 12 44 7
19 -12z m81 -5 c-10 -11 -23 -20 -29 -20 -6 0 0 9 14 20 32 25 38 25 15 0z
m-1660 -39 c-25 -24 -89 -39 -83 -20 4 14 59 37 88 38 11 1 10 -4 -5 -18z
m1235 -66 c-12 -14 -15 -14 -22 -1 -4 8 -5 22 -2 31 6 15 8 15 22 1 13 -13 13
-18 2 -31z m-800 21 c0 -16 -18 -31 -27 -22 -8 8 5 36 17 36 5 0 10 -6 10 -14z
m-50 -26 c0 -5 -5 -10 -11 -10 -5 0 -7 5 -4 10 3 6 8 10 11 10 2 0 4 -4 4 -10z
m390 -65 c0 -2 -18 -14 -40 -25 -22 -11 -40 -18 -40 -15 0 2 17 13 38 24 42
23 42 23 42 16z m486 -10 c-1 -8 -6 -18 -11 -22 -4 -4 -5 -2 -1 5 4 6 2 12 -4
12 -6 0 -8 5 -5 10 9 15 24 12 21 -5z m139 5 c-3 -5 -11 -10 -16 -10 -6 0 -7
5 -4 10 3 6 11 10 16 10 6 0 7 -4 4 -10z m-105 -105 c0 -8 -7 -15 -15 -15 -8
0 -15 7 -15 15 0 8 7 15 15 15 8 0 15 -7 15 -15z m-704 -39 c-4 -15 -1 -26 7
-29 7 -2 -3 -13 -23 -25 -43 -27 -50 -27 -51 -2 -1 11 -2 25 -3 30 -1 11 52
50 68 50 4 0 5 -11 2 -24z m64 -6 c0 -5 -2 -10 -4 -10 -3 0 -8 5 -11 10 -3 6
-1 10 4 10 6 0 11 -4 11 -10z m180 -10 c0 -5 -5 -10 -11 -10 -5 0 -7 5 -4 10
3 6 8 10 11 10 2 0 4 -4 4 -10z m-30 -19 c0 -5 -7 -12 -16 -15 -14 -5 -15 -4
-4 9 14 17 20 19 20 6z m-458 -53 c-6 -6 -15 -8 -19 -4 -4 4 -1 11 7 16 19 12
27 3 12 -12z m378 7 c-7 -8 -18 -15 -24 -15 -6 0 -2 7 8 15 25 19 32 19 16 0z
m209 -11 c-7 -8 -26 -22 -43 -31 -36 -18 -30 -10 16 23 39 28 45 29 27 8z
m-79 -54 c0 -5 -5 -10 -11 -10 -5 0 -7 5 -4 10 3 6 8 10 11 10 2 0 4 -4 4 -10z
m-341 -69 c-13 -11 -29 -20 -35 -21 -6 0 -17 -7 -24 -15 -14 -17 -40 -20 -40
-6 0 5 9 13 21 16 12 4 37 18 57 31 41 28 56 24 21 -5z m191 -25 c0 -6 -98
-66 -107 -66 -10 0 89 69 100 69 4 1 7 -1 7 -3z m138 -35 c-5 -15 -151 -121
-165 -121 -17 0 -17 16 0 30 6 6 41 31 77 55 63 42 95 55 88 36z m-448 -5 c0
-3 -4 -8 -10 -11 -5 -3 -10 -1 -10 4 0 6 5 11 10 11 6 0 10 -2 10 -4z m160
-61 c-33 -19 -46 -19 -30 0 7 8 22 15 34 15 20 -1 20 -2 -4 -15z m80 -85 c-19
-13 -30 -13 -30 0 0 6 10 10 23 10 18 0 19 -2 7 -10z"/>
<path d="M2075 1840 c3 -5 8 -10 11 -10 2 0 4 5 4 10 0 6 -5 10 -11 10 -5 0
-7 -4 -4 -10z"/>
<path d="M1638 1683 c6 -2 18 -2 25 0 6 3 1 5 -13 5 -14 0 -19 -2 -12 -5z"/>
<path d="M2430 1570 c0 -5 5 -10 11 -10 5 0 7 5 4 10 -3 6 -8 10 -11 10 -2 0
-4 -4 -4 -10z"/>
<path d="M0 145 c0 -8 4 -15 10 -15 5 0 7 7 4 15 -8 19 -14 19 -14 0z"/>
<path d="M35 10 c-3 -5 -1 -10 4 -10 6 0 11 5 11 10 0 6 -2 10 -4 10 -3 0 -8
-4 -11 -10z"/>
</g>
</svg>
