<?xml version="1.0" standalone="no"?>
<!DOCTYPE svg PUBLIC "-//W3C//DTD SVG 20010904//EN"
 "http://www.w3.org/TR/2001/REC-SVG-20010904/DTD/svg10.dtd">
<svg version="1.0" xmlns="http://www.w3.org/2000/svg"
 width="423.000000pt" height="119.000000pt" viewBox="0 0 423.000000 119.000000"
 preserveAspectRatio="xMidYMid meet">

<g transform="translate(0.000000,119.000000) scale(0.100000,-0.100000)"
fill="#000000" stroke="none">
<path d="M457 1033 c-4 -6 -19 -8 -33 -5 -20 3 -25 2 -19 -7 4 -7 13 -10 21
-7 8 3 14 1 14 -4 0 -6 -15 -11 -32 -11 -22 -1 -26 -3 -13 -6 11 -3 24 -9 30
-14 6 -6 14 -1 23 13 11 18 12 19 6 3 -3 -11 -9 -31 -12 -45 -6 -33 -21 -50
-42 -50 -25 0 -41 23 -45 64 -2 28 1 37 17 42 11 3 17 8 15 11 -3 2 -15 -1
-27 -7 -15 -8 -19 -17 -14 -32 5 -17 3 -20 -10 -15 -9 4 -16 2 -16 -3 0 -6 4
-10 9 -10 11 0 36 -59 27 -67 -3 -3 -6 1 -6 10 0 10 -4 17 -9 17 -5 0 -12 8
-14 18 -3 9 -5 -2 -6 -25 l-1 -43 100 0 c84 0 98 -2 94 -15 -5 -12 -31 -15
-151 -15 -97 0 -142 -3 -138 -10 4 -7 -3 -8 -20 -4 -24 6 -25 4 -20 -18 4 -16
1 -29 -8 -37 -18 -14 -33 2 -21 22 5 8 2 8 -9 -2 -18 -14 -24 -36 -7 -26 5 3
11 3 11 -2 9 -61 8 -65 -8 -51 -15 12 -16 10 -10 -14 4 -15 3 -29 -2 -33 -5
-3 -12 9 -14 27 -2 18 -5 -2 -5 -44 -2 -86 20 -154 59 -182 14 -9 43 -16 71
-16 l48 0 2 68 c0 37 1 73 1 79 -1 7 3 10 8 8 4 -3 13 3 18 14 17 31 66 41
197 41 122 0 124 0 156 29 32 28 32 31 36 130 6 133 -1 165 -42 196 -26 20
-48 26 -118 31 -53 4 -87 3 -91 -3z m-207 -227 c0 -15 -44 -16 -58 -1 -4 4 3
4 15 1 12 -4 24 -2 28 4 9 14 15 13 15 -4z"/>
</g>
</svg>
